<svg width="26" height="26" viewBox="0 0 26 26" fill="none" xmlns="http://www.w3.org/2000/svg">
<g filter="url(#filter0_d_0_2174)">
<path d="M17.193 12.1323C16.9001 11.8394 16.4252 11.8394 16.1323 12.1323C15.8394 12.4252 15.8394 12.9001 16.1323 13.193L17.193 12.1323ZM20.0199 17.0806C20.3128 17.3734 20.7877 17.3734 21.0806 17.0806C21.3734 16.7877 21.3734 16.3128 21.0806 16.0199L20.0199 17.0806ZM6.95195 12.3768L7.48231 11.8465L7.48226 11.8464L6.95195 12.3768ZM9.11403 13.8215L8.82696 14.5144L8.82704 14.5144L9.11403 13.8215ZM14.2147 13.8215L14.5017 14.5144L14.5018 14.5144L14.2147 13.8215ZM16.3768 12.3768L15.8465 11.8464L15.8464 11.8465L16.3768 12.3768ZM17.8215 10.2147L18.5144 10.5018L18.5144 10.5017L17.8215 10.2147ZM16.3768 2.95195L15.8464 3.48228L15.8465 3.4823L16.3768 2.95195ZM16.1323 13.193L20.0199 17.0806L21.0806 16.0199L17.193 12.1323L16.1323 13.193ZM4.25 7.66438C4.25 8.63802 4.44177 9.60213 4.81438 10.5017L6.20021 9.92773C5.90297 9.2101 5.75 8.44103 5.75 7.66438H4.25ZM4.81438 10.5017C5.18699 11.4014 5.73315 12.2187 6.42165 12.9071L7.48226 11.8464C6.93307 11.2973 6.49743 10.6453 6.20021 9.92773L4.81438 10.5017ZM6.4216 12.9071C7.11012 13.5957 7.92748 14.1417 8.82696 14.5144L9.40111 13.1286C8.68347 12.8313 8.03147 12.3957 7.48231 11.8465L6.4216 12.9071ZM8.82704 14.5144C9.72658 14.887 10.6907 15.0788 11.6644 15.0788V13.5788C10.8877 13.5788 10.1186 13.4258 9.40102 13.1286L8.82704 14.5144ZM11.6644 15.0788C12.638 15.0788 13.6021 14.887 14.5017 14.5144L13.9278 13.1286C13.2101 13.4258 12.441 13.5788 11.6644 13.5788V15.0788ZM14.5018 14.5144C15.4013 14.1417 16.2187 13.5956 16.9071 12.907L15.8464 11.8465C15.2973 12.3957 14.6453 12.8313 13.9277 13.1286L14.5018 14.5144ZM16.907 12.9071C17.5956 12.2187 18.1417 11.4013 18.5144 10.5018L17.1286 9.92767C16.8313 10.6453 16.3957 11.2973 15.8465 11.8464L16.907 12.9071ZM18.5144 10.5017C18.887 9.60213 19.0788 8.63803 19.0788 7.66438H17.5788C17.5788 8.44102 17.4258 9.2101 17.1286 9.92776L18.5144 10.5017ZM19.0788 7.66438C19.0788 5.69797 18.2977 3.81209 16.9071 2.4216L15.8465 3.4823C16.9557 4.59145 17.5788 6.09578 17.5788 7.66438H19.0788ZM16.9071 2.42163C15.5167 1.03116 13.6308 0.25 11.6644 0.25V1.75C13.233 1.75 14.7373 2.37312 15.8464 3.48228L16.9071 2.42163ZM11.6644 0.25C9.69796 0.25 7.81209 1.03115 6.42162 2.42162L7.48228 3.48228C8.59145 2.37312 10.0958 1.75 11.6644 1.75V0.25ZM6.42162 2.42162C5.03115 3.81209 4.25 5.69796 4.25 7.66438H5.75C5.75 6.09579 6.37312 4.59145 7.48228 3.48228L6.42162 2.42162Z" fill="#A445ED"/>
</g>
<defs>
<filter id="filter0_d_0_2174" x="0.25" y="0.25" width="25.0502" height="25.0502" filterUnits="userSpaceOnUse" color-interpolation-filters="sRGB">
<feFlood flood-opacity="0" result="BackgroundImageFix"/>
<feColorMatrix in="SourceAlpha" type="matrix" values="0 0 0 0 0 0 0 0 0 0 0 0 0 0 0 0 0 0 127 0" result="hardAlpha"/>
<feOffset dy="4"/>
<feGaussianBlur stdDeviation="2"/>
<feComposite in2="hardAlpha" operator="out"/>
<feColorMatrix type="matrix" values="0 0 0 0 0 0 0 0 0 0 0 0 0 0 0 0 0 0 0.25 0"/>
<feBlend mode="normal" in2="BackgroundImageFix" result="effect1_dropShadow_0_2174"/>
<feBlend mode="normal" in="SourceGraphic" in2="effect1_dropShadow_0_2174" result="shape"/>
</filter>
</defs>
</svg>
